<svg data-name="Layer 1" xmlns="http://www.w3.org/2000/svg" width="96" height="96" viewBox="0 0 96 96"><title>coffee</title><rect data-element="frame" x="0" y="0" width="96" height="96" rx="20" ry="20" stroke="none" fill="#ffffff"></rect><g class="nc-icon-wrapper" transform="translate(19.200000000000003 19.200000000000003) scale(0.6)"><path d="M71.181 28.012l-4.272 51.053c-.316 4.422-4.463 7.866-9.472 7.866H38.563c-5.009 0-9.157-3.444-9.473-7.867l-4.263-51.052z" fill="#edeced"></path><path fill="#edeced" d="M48.004 27.543v.234H24.352l-.018-.234h23.67z"></path><path d="M48.005 29.778H24.352a2 2 0 0 1-2-1.851l-.017-.235a2 2 0 0 1 1.994-2.149h23.676a2 2 0 0 1 2 2v.235a2 2 0 0 1-2 2z" fill="#231f20"></path><path fill="#edeced" d="M71.675 27.543l-.018.234H48.004v-.234h23.671z"></path><path d="M71.657 29.778H48.005a2 2 0 0 1-2-2v-.235a2 2 0 0 1 2-2h23.67a2 2 0 0 1 1.994 2.149l-.018.235a2 2 0 0 1-1.994 1.851z" fill="#231f20"></path><path d="M65.034 28.012l-3.14 51.053c-.233 4.422-3.282 7.866-6.964 7.866H41.055c-3.683 0-6.732-3.444-6.964-7.867l-3.134-51.052z" fill="#fcfafb"></path><path d="M59.5 88.5h-23a10.22 10.22 0 0 1-10.181-9.559l-3.77-51.032a1.8 1.8 0 0 1 1.8-1.938h47.3a1.806 1.806 0 0 1 1.8 1.938l-3.771 51.055A10.218 10.218 0 0 1 59.5 88.5zM26.3 29.582L29.923 78.7a6.609 6.609 0 0 0 6.58 6.195H59.5a6.6 6.6 0 0 0 6.578-6.176l3.638-49.134z" fill="#231f20"></path><path d="M74.1 23.184v4.593H21.9v-4.593a4.658 4.658 0 0 1 4.666-4.656h42.88a4.655 4.655 0 0 1 4.654 4.656z" fill="#edeced"></path><path d="M64.335 23.177v4.593H31.664v-4.593c0-2.572 1.3-4.656 2.92-4.656h26.837c1.61 0 2.914 2.084 2.914 4.656z" fill="#fcfafb"></path><path d="M19.9 27.777v-4.593a6.665 6.665 0 0 1 6.657-6.657h42.88a6.67 6.67 0 0 1 6.663 6.657v4.593a2 2 0 0 1-2 2H21.9a2 2 0 0 1-2-2zm52.2-4.593a2.665 2.665 0 0 0-2.666-2.657h-42.88a2.66 2.66 0 0 0-2.654 2.657v2.593h48.2z" fill="#231f20"></path><path d="M63.236 9.5H32.81a3.358 3.358 0 0 0-3.249 2.508l-1.7 6.515h40.3l-1.664-6.5A3.359 3.359 0 0 0 63.236 9.5z" fill="#edeced"></path><path d="M68.153 20.521h-40.3a2 2 0 0 1-1.934-2.507l1.707-6.514a5.36 5.36 0 0 1 5.184-4h30.425a5.359 5.359 0 0 1 5.192 4.029l1.664 6.5a2 2 0 0 1-1.938 2.5zm-37.707-4h35.13l-1.024-4a1.36 1.36 0 0 0-1.317-1.021H32.81a1.359 1.359 0 0 0-1.31 1.012z" fill="#231f20"></path><path fill="#99c87f" d="M69.546 71.763H26.463L24.58 42.39h46.849l-1.883 29.373z"></path><path d="M69.546 73.763H26.463a2 2 0 0 1-2-1.872l-1.879-29.373a2 2 0 0 1 2-2.128h46.845a2 2 0 0 1 2 2.128l-1.887 29.373a2 2 0 0 1-1.996 1.872zm-41.207-4H67.67L69.3 44.39H26.712z" fill="#231f20"></path><path d="M59.84 59.971H36.169a2.5 2.5 0 0 1 0-5H59.84a2.5 2.5 0 0 1 0 5z" fill="#fff"></path><circle cx="47.996" cy="57.471" r="7.5" fill="#fff"></circle></g></svg>