<svg data-name="Layer 1" xmlns="http://www.w3.org/2000/svg" width="20" height="20" viewBox="0 0 20 20"><title>file</title><rect data-element="frame" x="0" y="0" width="20" height="20" rx="4" ry="4" stroke="none" fill="#ffffff"></rect><g transform="translate(4 4) scale(0.6)" fill="#212121" class="nc-icon-wrapper"><path d="M16 19H4a2 2 0 0 1-2-2V3a2 2 0 0 1 2-2h9l5 5v11a2 2 0 0 1-2 2z" fill="none" stroke="#212121" stroke-linecap="round" stroke-linejoin="round" stroke-width="2"></path><path d="M15 9h-4a1 1 0 0 1-1-1V4a1 1 0 0 1 1.707-.707l4 4A1 1 0 0 1 15 9z" opacity=".4"></path></g></svg>