<svg id="Layer_1" data-name="Layer 1" xmlns="http://www.w3.org/2000/svg" width="20" height="20" viewBox="0 0 20 20"><polyline points="1 10 10 1 19 10" fill="none" stroke="#000" stroke-linecap="round" stroke-linejoin="round" stroke-width="2"/><path d="M17,12v5a2,2,0,0,1-2,2H5a2,2,0,0,1-2-2V12" fill="none" stroke="#000" stroke-linecap="round" stroke-linejoin="round" stroke-width="2"/><path d="M9,13h2a1,1,0,0,1,1,1v5a0,0,0,0,1,0,0H8a0,0,0,0,1,0,0V14A1,1,0,0,1,9,13Z" opacity="0.4"/><rect x="8" y="7" width="4" height="4" rx="1" opacity="0.4"/></svg>