<svg xmlns="http://www.w3.org/2000/svg" height="512" width="512" viewBox="0 0 512 512"><title>pay</title><rect data-element="frame" x="0" y="0" width="512" height="512" rx="103" ry="103" stroke="none" fill="#ffffff"></rect><g class="nc-icon-wrapper" transform="translate(102.4 102.4) scale(0.6)"><defs></defs><path class="cls-1" d="M308 138l83.79 130.59a42.48 42.48 0 0 1 4.64 36.11l-38 116.71V484H230.46v-25.1S193.6 439.84 193.6 395V138z" fill="#fcd8c0"></path><path class="cls-2" d="M308 138H193.6v257a74.23 74.23 0 0 0 3.2 21.86c7.53 8.29 28.85 26.84 68.85 26.84l56.14-95.54h.51a15 15 0 0 0 15-14.65l3.31-144.6z" fill="#ef9e86"></path><path class="cls-3" d="M296.81 28H138.49a25 25 0 0 0-25 25v334.92a25 25 0 0 0 25 25h183.3V53a25 25 0 0 0-24.98-25z" fill="#aabc80"></path><path class="cls-4" d="M321.79 257.82l-3-1.82s-11-20.91-22-20.91h-10.42a34.2 34.2 0 0 0-34.2 34.2v48.32s-53.76 23.17-34.76 95.29h104.38z" fill="#8a9b5c"></path><path class="cls-5" d="M175.61 380.36a29.55 29.55 0 0 0-29.55-29.56V90.13a29.55 29.55 0 0 0 29.55-29.56h84.08a29.55 29.55 0 0 0 29.55 29.56V350.8a29.55 29.55 0 0 0-29.55 29.56z" fill="#c7dba2"></path><path class="cls-5" d="M127.19 131.18a90.46 90.46 0 0 0 90.46-90.47 91.53 91.53 0 0 0-.9-12.68h-78.26a25 25 0 0 0-25 25v77.14a90.74 90.74 0 0 0 13.7 1.01z" fill="#c7dba2"></path><path class="cls-6" d="M289.24 235.09h-2.87a34.2 34.2 0 0 0-34.2 34.2v48.32s-37.11 16-38.78 62.75h46.3a29.55 29.55 0 0 1 29.55-29.56z" fill="#aabf7c"></path><path class="cls-1" d="M265.65 443.66c-28.75-15-29.49-51.31-29.49-51.31 0-48.65 35.69-62.36 35.69-62.36v-63.93a25 25 0 0 1 25-25 25 25 0 0 1 25 25v76.31l8.83 57.24a38.22 38.22 0 0 1-37.77 44.05z" fill="#fcd8c0"></path><path class="cls-2" d="M271.85 266.06V330s-35.69 13.71-35.69 62.36c0 0 .73 34.61 27.57 50.23-27.67-61.14 3.31-90.65 16.56-99.88a12.55 12.55 0 0 0 5.41-10.27v-67.07c0-20.19 11.12-24.28 11.12-24.28a25 25 0 0 0-24.97 24.97z" fill="#ef9e86"></path><path class="cls-7" d="M215.44 60.57h-39.83a29.55 29.55 0 0 1-29.55 29.56v39.06a90.53 90.53 0 0 0 69.38-68.62z" fill="#e0edc3"></path><path class="cls-8" d="M138.49 418.61h52.91c7.73 25.13 26 38.89 33.35 43.55V484a5.71 5.71 0 0 0 5.71 5.71h127.9a5.71 5.71 0 0 0 5.71-5.71v-61.7l37.74-115.84a48 48 0 0 0-5.26-41l-51.12-79.65a5.71 5.71 0 0 0-9.61 6.16l51.12 79.66a36.64 36.64 0 0 1 4 31.26l-38 116.71a5.85 5.85 0 0 0-.28 1.77v56.86h-116.5V458.9a5.72 5.72 0 0 0-3.08-5.08 69.6 69.6 0 0 1-29.66-35.21h32.94c4.53 10.9 12.51 22.71 26.65 30.11a5.71 5.71 0 0 0 5.29-10.12c-25.33-13.25-26.42-46.05-26.43-46.25 0-43.88 30.74-56.52 32-57a5.71 5.71 0 0 0 3.66-5.33v-63.96a19.27 19.27 0 0 1 38.53 0v76.31a5.71 5.71 0 1 0 11.42 0v-76.31a30.68 30.68 0 0 0-61.36 0v60.32c-9.82 5.19-35.68 23-35.68 66.09a73.22 73.22 0 0 0 2.17 14.72h-94.12a19.29 19.29 0 0 1-19.27-19.27V53a19.29 19.29 0 0 1 19.27-19.27h158.32A19.29 19.29 0 0 1 316.08 53v170.5a5.71 5.71 0 1 0 11.42 0V53a30.73 30.73 0 0 0-30.69-30.69H138.49A30.73 30.73 0 0 0 107.8 53v334.92a30.73 30.73 0 0 0 30.69 30.69z" fill="#4d4d4d"></path><path class="cls-8" d="M289.24 223.32a5.71 5.71 0 0 0 5.71-5.71V90.13a5.71 5.71 0 0 0-5.71-5.71 23.88 23.88 0 0 1-23.85-23.85 5.71 5.71 0 0 0-5.7-5.71h-84.08a5.71 5.71 0 0 0-5.7 5.71 23.88 23.88 0 0 1-23.85 23.85 5.71 5.71 0 0 0-5.71 5.71V350.8a5.71 5.71 0 0 0 5.71 5.71 23.88 23.88 0 0 1 23.85 23.85 5.71 5.71 0 0 0 5.7 5.71h35.87a5.71 5.71 0 0 0 0-11.42h-30.62a35.37 35.37 0 0 0-29.09-29.1V95.38a35.37 35.37 0 0 0 29.09-29.1h73.58a35.36 35.36 0 0 0 29.1 29.1v122.23a5.71 5.71 0 0 0 5.7 5.71z" fill="#4d4d4d"></path><path class="cls-8" d="M241.14 227.9a5.71 5.71 0 0 0 11.42 0v-6.45H258a5.71 5.71 0 1 0 0-11.45h-5.55a20.3 20.3 0 0 0-40.54 1.48V220a8.89 8.89 0 1 1-17.78 0v-16.41a5.71 5.71 0 0 0-11.42 0V210h-5.47a5.71 5.71 0 1 0 0 11.41h5.55a20.3 20.3 0 0 0 40.57-1.41v-8.45a8.89 8.89 0 1 1 17.78 0z" fill="#4d4d4d"></path><path class="cls-8" d="M212.9 148.69a5.46 5.46 0 0 0 .72.87 5.67 5.67 0 0 0 4 1.67 5.74 5.74 0 0 0 4-1.67 5.34 5.34 0 0 0 .7-.87 4.27 4.27 0 0 0 .53-1 5.56 5.56 0 0 0 .33-1 6.18 6.18 0 0 0 .11-1.13 5.59 5.59 0 0 0-.44-2.18 5 5 0 0 0-.53-1 5.19 5.19 0 0 0-.7-.85 5.76 5.76 0 0 0-4-1.69 5.74 5.74 0 0 0-5.7 5.71 4.81 4.81 0 0 0 .11 1.13 5.5 5.5 0 0 0 .31 1 5.82 5.82 0 0 0 .56 1.01z" fill="#4d4d4d"></path><path class="cls-8" d="M217.65 289.69a5.75 5.75 0 0 0-4 1.67 5.94 5.94 0 0 0-.72.87 7.23 7.23 0 0 0-.53 1 5.49 5.49 0 0 0-.31 1.07 4.65 4.65 0 0 0-.11 1.11 4.55 4.55 0 0 0 .11 1.11 5.29 5.29 0 0 0 .31 1.07 6.22 6.22 0 0 0 .53 1 5.46 5.46 0 0 0 .72.87 5.71 5.71 0 0 0 4 1.67 5.71 5.71 0 1 0 0-11.42z" fill="#4d4d4d"></path></g></svg>